<?xml version="1.0"?>
<svg xmlns="http://www.w3.org/2000/svg" xmlns:xlink="http://www.w3.org/1999/xlink" xmlns:svgjs="http://svgjs.com/svgjs" version="1.1" width="512" height="512" x="0" y="0" viewBox="0 0 512 512" style="enable-background:new 0 0 512 512" xml:space="preserve" class=""><g><path xmlns="http://www.w3.org/2000/svg" d="m58.101562 233.304688c.332032.042968.664063.066406.992188.066406 3.703125 0 6.925781-2.746094 7.425781-6.519532.570313-4.328124 1.269531-8.6875 2.074219-12.960937.765625-4.070313-1.914062-7.992187-5.984375-8.757813-4.074219-.765624-7.992187 1.914063-8.757813 5.984376-.855468 4.539062-1.597656 9.171874-2.203124 13.769531-.542969 4.105469 2.34375 7.875 6.453124 8.417969zm0 0" fill="#3fa65b" data-original="#000000" style="" class=""/><path xmlns="http://www.w3.org/2000/svg" d="m491.3125 341.085938c13.554688-31.523438 20.6875-65.769532 20.6875-101.117188 0-24.40625-3.496094-48.695312-10.390625-72.1875-.71875-2.449219-2.636719-4.367188-5.085937-5.085938-4.828126-1.414062-9.707032-2.679687-14.613282-3.8125-34.132812-95.101562-124.695312-158.882812-225.910156-158.882812-68.175781 0-133.101562 29.039062-178.617188 79.746094-4.46875-1.109375-8.960937-2.109375-13.488281-2.972656-2.722656-.523438-5.507812.5-7.246093 2.65625-17.964844 22.28125-31.960938 47.15625-41.601563 73.9375-9.984375 27.734374-15.046875 56.871093-15.046875 86.601562 0 114.335938 75.910156 213.945312 183.683594 245.5625.042968.011719 3.273437.945312 3.996094 1.144531 22.285156 6.164063 45.25 9.292969 68.320312 9.292969 68.378906 0 132.667969-26.628906 181.019531-74.980469 23.113281-23.109375 41.246094-49.871093 53.894531-78.96875.152344-.304687.289063-.613281.398438-.933593zm-26.746094-185.589844c-4.003906-.636719-8.015625-1.1875-12.03125-1.632813-4.113281-.457031-7.824218 2.507813-8.28125 6.628907-.457031 4.117187 2.511719 7.824218 6.628906 8.28125 12.589844 1.394531 25.171876 3.8125 37.457032 7.191406 5.746094 20.882812 8.660156 42.394531 8.660156 64.003906 0 32.601562-6.441406 64.210938-18.703125 93.390625-7.125 3.90625-31.765625 16.578125-62.496094 23.1875 18.3125-35.804687 28.058594-75.707031 28.058594-116.578125 0-4.144531-3.355469-7.5-7.5-7.5-4.140625 0-7.5 3.355469-7.5 7.5 0 58.636719-21.304687 115.148438-59.996094 159.121094-6.980469 7.933594-14.4375 15.355468-22.304687 22.242187-5.960938-20.753906-20.96875-68.453125-43.882813-110.785156-1.972656-3.644531-6.523437-5-10.167969-3.027344-3.640624 1.972657-4.996093 6.523438-3.023437 10.167969 24.703125 45.636719 40.367187 99.378906 44.390625 114.015625-32.535156 24.800781-70.992188 41.050781-111.832031 46.847656-10.121094-1.441406-20.15625-3.519531-30.046875-6.242187-5.746094-20.882813-8.65625-42.394532-8.65625-64.003906 0-63.128907 24.238281-122.8125 68.253906-168.046876 43.925781-45.148437 102.738281-71.019531 165.601562-72.847656 4.140626-.121094 7.398438-3.574218 7.277344-7.714844-.121094-4.140624-3.539062-7.402343-7.714844-7.28125-17.0625.496094-33.84375 2.671876-50.152343 6.417969.726562-7.652343 1.105469-15.378906 1.105469-23.074219 0-35.542968-7.886719-70.59375-22.929688-102.46875 53.523438 23.023438 97.1875 66.414063 119.785156 122.207032zm-208.566406-140.496094c23.453125 0 46.296875 3.660156 67.882812 10.507812 18.863282 33.496094 28.828126 71.558594 28.828126 110.25 0 9.078126-.546876 18.195313-1.625 27.164063-19.660157 5.84375-38.507813 14.035156-56.191407 24.425781-26.546875-46.347656-67.546875-83.851562-115.941406-105.933594-3.769531-1.71875-8.21875-.058593-9.9375 3.707032-1.71875 3.769531-.058594 8.21875 3.710937 9.9375 45.742188 20.875 84.464844 56.394531 109.453126 100.285156-11.832032 7.925781-23.066407 16.886719-33.582032 26.828125-16.085937-35.28125-40.25-66.792969-70.320312-91.582031-25.078125-20.671875-53.941406-36.375-84.710938-46.238282 42.355469-44.1875 100.988282-69.351562 162.433594-69.351562zm-190.488281 77.398438c37.722656 7.96875 73.328125 25.121093 103.222656 49.761718 29.789063 24.558594 53.398437 56.121094 68.492187 91.445313-44.457031 47.570312-68.886718 109.394531-68.886718 174.703125 0 17.523437 1.8125 34.980468 5.378906 52.132812-31.457031-20.574218-57.886719-48.347656-76.800781-80.875-.816407-1.402344-1.613281-2.820312-2.398438-4.238281 3.621094-5.199219 22.699219-31.324219 51.800781-48.816406 3.546876-2.136719 4.695313-6.742188 2.5625-10.292969-2.132812-3.550781-6.742187-4.699219-10.292968-2.566406-25.222656 15.164062-43.164063 35.710937-51.683594 46.714844-14.746094-31.679688-22.472656-66.433594-22.472656-101.695313 0-4.140625-3.359375-7.5-7.5-7.5-4.144532 0-7.5 3.359375-7.5 7.5 0 12.761719.953125 25.464844 2.828125 38-16.960938-8.84375-31.960938-22.375-35.21875-25.40625-1.34375-10.269531-2.042969-20.714844-2.042969-31.296875 0-54.085938 17.449219-105.011719 50.511719-147.570312zm-44.304688 201.953124c9.171875 7.035157 21.535157 15.289063 34.421875 20.332032 5.679688 25.394531 15.199219 49.851562 28.324219 72.425781 12.769531 21.960937 28.777344 41.871094 47.320313 59.089844-55.199219-33.4375-95.3125-88.195313-110.066407-151.847657zm405.207031 116.027344c-40.59375 40.59375-93.113281 64.902344-149.65625 69.695313 39.476563-14.625 75.085938-38.929688 103.371094-71.074219 9.777344-11.113281 18.496094-22.988281 26.128906-35.460938 24.773438-3.742187 46.613282-11.71875 61.488282-18.289062-10.925782 20.003906-24.765625 38.5625-41.332032 55.128906zm0 0" fill="#3fa65b" data-original="#000000" style="" class=""/></g></svg>
